<svg xmlns="http://www.w3.org/2000/svg" xmlns:xlink="http://www.w3.org/1999/xlink" viewBox="0 0 128 128"><defs><style>.cls-1{fill:url(#linear-gradient);}.cls-2{fill:#fff;}</style><linearGradient id="linear-gradient" x1="-1201.35" y1="601.09" x2="-1201.35" y2="597.98" gradientTransform="translate(48118.04 -23786.35) scale(40 39.78)" gradientUnits="userSpaceOnUse"><stop offset="0" stop-color="#0062e0"/><stop offset="1" stop-color="#19afff"/></linearGradient></defs><g id="Layer_2" data-name="Layer 2"><g id="Facebook"><path class="cls-1" d="M53.44,127.36C23,121.92,0,95.68,0,64a64,64,0,0,1,128,0c0,31.68-23,57.92-53.44,63.36L71,124.48H57Z"/><path class="cls-2" d="M89,81.92,91.84,64h-17V51.52c0-5.12,1.92-9,9.6-9H92.8V26.24A104.65,104.65,0,0,0,78.72,25c-14.72,0-25,9-25,25V64h-16V81.92h16V127a58.56,58.56,0,0,0,21.12,0V81.92Z"/></g></g></svg>