<svg xmlns="http://www.w3.org/2000/svg" xmlns:xlink="http://www.w3.org/1999/xlink" viewBox="0 0 128 128"><defs><style>.cls-1{fill:url(#radial-gradient);}.cls-2{fill:url(#radial-gradient-2);}.cls-3{fill:url(#radial-gradient-3);}.cls-4{fill:url(#radial-gradient-4);}.cls-5{fill:#fff;}</style><radialGradient id="radial-gradient" cx="-423.67" cy="295.59" r="6.7" gradientTransform="matrix(-11.75, 3.31, 2.39, 8.46, -5558.34, -1038.04)" gradientUnits="userSpaceOnUse"><stop offset="0" stop-color="#ff005f"/><stop offset="1" stop-color="#fc01d8"/></radialGradient><radialGradient id="radial-gradient-2" cx="-435.69" cy="438.02" r="6.7" gradientTransform="matrix(0, -15.25, -16.18, 0, 7119.91, -6505.18)" gradientUnits="userSpaceOnUse"><stop offset="0" stop-color="#fc0"/><stop offset="0.12" stop-color="#fc0"/><stop offset="0.57" stop-color="#fe4a05"/><stop offset="0.69" stop-color="#ff0f3f"/><stop offset="1" stop-color="#fe0657" stop-opacity="0"/></radialGradient><radialGradient id="radial-gradient-3" cx="-351.28" cy="530.53" r="8.32" gradientTransform="matrix(2.55, -4.39, -5.72, -3.32, 3996.11, 343.96)" gradientUnits="userSpaceOnUse"><stop offset="0" stop-color="#fc0"/><stop offset="1" stop-color="#fc0" stop-opacity="0"/></radialGradient><radialGradient id="radial-gradient-4" cx="-529.94" cy="896.92" r="8.59" gradientTransform="matrix(-9.07, 2.55, 0.87, 3.09, -5567.39, -1412.49)" gradientUnits="userSpaceOnUse"><stop offset="0" stop-color="#780cff"/><stop offset="1" stop-color="#820bff" stop-opacity="0"/></radialGradient></defs><g id="Layer_2" data-name="Layer 2"><g id="Instagram"><path class="cls-1" d="M64,0C37.3,0,29.49,0,28,.15c-5.49.46-8.9,1.32-12.61,3.17A25.7,25.7,0,0,0,8,8.71,27.47,27.47,0,0,0,.59,24.28c-.43,3-.56,3.6-.59,18.89C0,48.27,0,55,0,64c0,26.71,0,34.52.16,36a32.12,32.12,0,0,0,3.05,12.36,27,27,0,0,0,17.48,14.28A45.55,45.55,0,0,0,30,127.88c1.59.07,17.74.12,33.9.12s32.33,0,33.88-.1a43.53,43.53,0,0,0,9.63-1.26,26.83,26.83,0,0,0,17.47-14.31,31.59,31.59,0,0,0,3-12.13C128,99.1,128,81.52,128,64s0-35.12-.13-36.22a31.27,31.27,0,0,0-3.07-12.25A25.67,25.67,0,0,0,119.32,8,27.66,27.66,0,0,0,103.73.59c-3-.44-3.58-.56-18.88-.59Z"/><path class="cls-2" d="M64,0C37.3,0,29.49,0,28,.15c-5.49.46-8.9,1.32-12.61,3.17A25.7,25.7,0,0,0,8,8.71,27.47,27.47,0,0,0,.59,24.28c-.43,3-.56,3.6-.59,18.89C0,48.27,0,55,0,64c0,26.71,0,34.52.16,36a32.12,32.12,0,0,0,3.05,12.36,27,27,0,0,0,17.48,14.28A45.55,45.55,0,0,0,30,127.88c1.59.07,17.74.12,33.9.12s32.33,0,33.88-.1a43.53,43.53,0,0,0,9.63-1.26,26.83,26.83,0,0,0,17.47-14.31,31.59,31.59,0,0,0,3-12.13C128,99.1,128,81.52,128,64s0-35.12-.13-36.22a31.27,31.27,0,0,0-3.07-12.25A25.67,25.67,0,0,0,119.32,8,27.66,27.66,0,0,0,103.73.59c-3-.44-3.58-.56-18.88-.59Z"/><path class="cls-3" d="M64,0C37.3,0,29.49,0,28,.15c-5.49.46-8.9,1.32-12.61,3.17A25.7,25.7,0,0,0,8,8.71,27.47,27.47,0,0,0,.59,24.28c-.43,3-.56,3.6-.59,18.89C0,48.27,0,55,0,64c0,26.71,0,34.52.16,36a32.12,32.12,0,0,0,3.05,12.36,27,27,0,0,0,17.48,14.28A45.55,45.55,0,0,0,30,127.88c1.59.07,17.74.12,33.9.12s32.33,0,33.88-.1a43.53,43.53,0,0,0,9.63-1.26,26.83,26.83,0,0,0,17.47-14.31,31.59,31.59,0,0,0,3-12.13C128,99.1,128,81.52,128,64s0-35.12-.13-36.22a31.27,31.27,0,0,0-3.07-12.25A25.67,25.67,0,0,0,119.32,8,27.66,27.66,0,0,0,103.73.59c-3-.44-3.58-.56-18.88-.59Z"/><path class="cls-4" d="M64,0C37.3,0,29.49,0,28,.15c-5.49.46-8.9,1.32-12.61,3.17A25.7,25.7,0,0,0,8,8.71,27.47,27.47,0,0,0,.59,24.28c-.43,3-.56,3.6-.59,18.89C0,48.27,0,55,0,64c0,26.71,0,34.52.16,36a32.12,32.12,0,0,0,3.05,12.36,27,27,0,0,0,17.48,14.28A45.55,45.55,0,0,0,30,127.88c1.59.07,17.74.12,33.9.12s32.33,0,33.88-.1a43.53,43.53,0,0,0,9.63-1.26,26.83,26.83,0,0,0,17.47-14.31,31.59,31.59,0,0,0,3-12.13C128,99.1,128,81.52,128,64s0-35.12-.13-36.22a31.27,31.27,0,0,0-3.07-12.25A25.67,25.67,0,0,0,119.32,8,27.66,27.66,0,0,0,103.73.59c-3-.44-3.58-.56-18.88-.59Z"/><path class="cls-5" d="M64,16.44c-12.93,0-14.55,0-19.63.28a35.11,35.11,0,0,0-11.55,2.21A24.36,24.36,0,0,0,18.93,32.84a34.73,34.73,0,0,0-2.21,11.54c-.23,5.07-.29,6.7-.29,19.61s.06,14.53.29,19.61a34.78,34.78,0,0,0,2.21,11.54,24.36,24.36,0,0,0,13.92,13.91,34.74,34.74,0,0,0,11.55,2.21c5.07.23,6.7.29,19.62.29s14.54-.06,19.62-.29a34.86,34.86,0,0,0,11.56-2.21,24.38,24.38,0,0,0,13.91-13.91,35,35,0,0,0,2.21-11.54c.23-5.08.29-6.69.29-19.61s-.06-14.53-.29-19.61a35,35,0,0,0-2.21-11.54A24.36,24.36,0,0,0,95.19,18.93a35.12,35.12,0,0,0-11.56-2.21c-5.07-.23-6.69-.28-19.62-.28ZM59.76,25C61,25,62.44,25,64,25c12.7,0,14.21,0,19.23.27a26.23,26.23,0,0,1,8.83,1.64,15.71,15.71,0,0,1,9,9,26.29,26.29,0,0,1,1.64,8.83c.23,5,.28,6.52.28,19.21s-.05,14.2-.28,19.21A26.29,26.29,0,0,1,101.12,92a15.79,15.79,0,0,1-9,9,26.23,26.23,0,0,1-8.83,1.64c-5,.23-6.53.27-19.23.27s-14.22,0-19.23-.27A26.57,26.57,0,0,1,36,101a15.75,15.75,0,0,1-9-9,26.48,26.48,0,0,1-1.64-8.82c-.22-5-.27-6.52-.27-19.22s0-14.2.27-19.21a26.49,26.49,0,0,1,1.64-8.83,15.75,15.75,0,0,1,9-9,26.31,26.31,0,0,1,8.84-1.64c4.39-.2,6.09-.26,15-.27ZM89.43,32.9a5.71,5.71,0,1,0,5.71,5.71,5.71,5.71,0,0,0-5.71-5.71ZM64,39.57A24.42,24.42,0,1,0,88.46,64,24.43,24.43,0,0,0,64,39.57Zm0,8.57A15.85,15.85,0,1,1,48.16,64,15.86,15.86,0,0,1,64,48.14Z"/></g></g></svg>