<svg xmlns="http://www.w3.org/2000/svg" viewBox="0 0 157.53 128"><defs><style>.cls-1{fill:#1d9bf0;}</style></defs><g id="Layer_2" data-name="Layer 2"><g id="Twitter"><path class="cls-1" d="M141.4,31.87c.1,1.38.1,2.77.1,4.17,0,42.71-32.51,92-92,92v0A91.48,91.48,0,0,1,0,113.49a65.85,65.85,0,0,0,7.69.46,64.87,64.87,0,0,0,40.14-13.86A32.35,32.35,0,0,1,17.64,77.65a32.26,32.26,0,0,0,14.59-.56A32.32,32.32,0,0,1,6.3,45.41V45a32.16,32.16,0,0,0,14.67,4A32.35,32.35,0,0,1,11,5.9,91.74,91.74,0,0,0,77.58,39.66a32.35,32.35,0,0,1,55.07-29.48,64.63,64.63,0,0,0,20.52-7.84A32.44,32.44,0,0,1,139,20.21a64.15,64.15,0,0,0,18.56-5.09A65.71,65.71,0,0,1,141.4,31.87Z"/></g></g></svg>