<?xml version="1.0" encoding="UTF-8"?><svg xmlns="http://www.w3.org/2000/svg" viewBox="0 0 79.94 89.34"><defs><style>.d{fill:#fff;}.e{fill:#17e3cd;}</style></defs><g id="a"/><g id="b"><g id="c"><g><path class="e" d="M79.92,21.77c-.89,21.15-5.64,40.84-21.56,56.22-1.31,1.26-2.72,2.45-4.2,3.51-14.82,10.66-14.9,10.86-30.75-1.95C10.01,68.72,3.93,53.39,1.08,36.66-.13,29.55,.07,22.42,0,15.27c-.03-3.29,1.36-4.57,4.6-3.97,12.43,2.3,22.93-2.13,32.27-9.79,2.47-2.03,3.8-2,6.22,.04,9.31,7.81,19.87,11.96,32.26,9.75,3.27-.58,4.69,.73,4.57,3.99-.08,2.16-.01,4.33-.01,6.49ZM7.97,24.51c.71,4.6,1.26,9.22,2.16,13.78,3.1,15.71,9.96,29.16,23.39,38.7,4.13,2.93,7.73,3.7,12.17,.35,4.41-3.34,8.52-6.81,11.95-11.19,9.77-12.49,12.7-27.2,14.12-42.44,.28-3.03-1.55-3.61-4.04-3.62-9.12-.02-17.33-3-24.74-8.1-2.36-1.62-4.03-1.34-6.24,.15-7.32,4.94-15.36,7.91-24.29,7.93-3.13,0-4.79,1.08-4.48,4.44Z"/><path class="d" d="M26.52,43.37c1.26,1.76,2.49,3.54,3.79,5.28,1.7,2.27,3.23,2.06,5.19,.02,5.51-5.74,11.27-11.24,16.81-16.95,1.8-1.85,2.99-2.48,5.17-.3,2.26,2.25,1.33,3.44-.43,5.17-7.33,7.21-14.62,14.45-21.78,21.82-1.94,2-3.22,2.17-5.11,.02-2.41-2.73-5.13-5.18-7.68-7.79-.9-.92-2.19-1.87-.8-3.31,1.12-1.16,1.99-2.69,4.86-3.95Z"/></g></g></g></svg>