<?xml version="1.0" encoding="UTF-8"?><svg xmlns="http://www.w3.org/2000/svg" viewBox="0 0 95.76 122.28"><defs><style>.d{fill:#0ae3c9;}.e{fill:#d7f6f4;}</style></defs><g id="a"/><g id="b"><g id="c"><g><path class="d" d="M91.44,33.24c-.22,3.16,.31,6.01,2.32,8.82,2.76,3.86,2.62,8.22-.12,12.13-1.69,2.41-2.39,4.86-2.12,7.71,.1,1.07,0,2.16,.04,3.25,.11,3.55-1.31,6.31-4.37,8.13-3.04,1.8-5.19,4.1-6.25,7.68-1.2,4.08-4.04,6.8-8.6,7.25-3.57,.35-6.59,1.6-9.13,4.45-2.53,2.84-5.9,4.45-9.86,2.58-3.77-1.78-7.46-1.69-11.2,.06-4.3,2-7.74-.05-10.48-2.95-2.48-2.63-5.29-3.82-8.73-4.17-4.41-.45-7.03-3.15-8.35-7.17-.96-2.93-2.3-5.29-5.19-6.93-4.58-2.6-6.49-6.71-5.38-12.03,.55-2.67-.17-5.05-1.69-7.3-3.07-4.53-3.18-9.05,.11-13.63,1.54-2.14,2.17-4.71,1.61-7.35-1.17-5.61,1.07-9.61,5.86-12.23,2.6-1.42,3.79-3.58,4.48-6.24,1.09-4.17,4.3-7.04,8.6-7.49,3.44-.36,6.25-1.53,8.71-4.18,3.74-4.03,7.67-4.54,12.69-2.25,2.18,.99,4.3,1.15,6.48,.06,4.98-2.49,9.42-1.62,13.02,2.54,2.22,2.56,5.04,3.54,8.15,3.74,5.12,.33,7.81,3.35,9.11,7.87,.76,2.64,2.15,4.6,4.42,6.08,4.15,2.7,7.32,5.95,5.85,11.59ZM16.12,47.85c-.73,17.17,14.68,32.04,31.73,31.87,17.42-.17,31.69-14.33,31.69-31.79,0-17.02-14.16-31.81-31.99-31.71-16.76,.09-31.86,14.19-31.43,31.63Z"/><path class="d" d="M.17,105.9c-.13-1.29,.23-2.49,.94-3.7,2.7-4.57,5.29-9.21,7.97-13.79,1.48-2.53,2.39-2.57,4.19-.41,2.42,2.92,5.7,4.24,9.32,4.72,2.58,.34,4.76,1.21,6.49,3.25,2.08,2.45,4.93,3.62,7.97,4.25,1.9,.39,2.17,1.05,1.22,2.69-3.17,5.43-6.21,10.94-9.38,16.37-2.36,4.05-7.96,3.99-10.12-.14-1.07-2.05-1.91-4.23-2.68-6.41-.62-1.78-1.81-2.23-3.49-1.99-1.97,.28-3.94,.55-5.91,.87-3.1,.5-7.14-1.95-6.53-5.71Z"/><path class="d" d="M95.56,105.87c-.01,3.6-2.93,6.09-6.37,5.75-1.65-.16-3.3-.36-4.95-.59-4.09-.56-4.41-.39-5.66,3.61-.73,2.33-1.59,4.54-3.45,6.23-2.09,1.89-5.11,1.85-7.16-.1-2.1-2-3.03-4.74-4.54-7.12-2.18-3.43-4.07-7.05-6.13-10.55-.94-1.61-.5-2.43,1.26-2.85,3.2-.77,6.13-2.14,8.35-4.64,1.48-1.66,3.22-2.49,5.37-2.79,4.17-.57,7.87-2.02,10.43-5.64,1-1.41,2.15-1.11,2.97,.26,1.96,3.26,3.87,6.56,5.78,9.84,1.09,1.87,2.1,3.78,3.23,5.61,.64,1.04,1,2.09,.86,2.95Z"/><path class="d" d="M47.9,21.72c14.53,0,26.2,11.62,26.19,26.09,0,14.91-11.51,26.36-26.34,26.5-14.24,.13-26.35-12.03-26.34-26.54,.01-13.96,12.34-26.64,26.5-26.05Zm-7.8,24.01c-1.01,.03-1.63,.58-2.01,1.35-.5,1.02-.2,1.94,.58,2.72,2.12,2.12,4.22,4.26,6.36,6.36,2.49,2.46,3.52,2.37,5.45-.52,3.04-4.55,6.01-9.16,9.1-13.68,.89-1.3,1.7-2.46-.06-3.51-1.63-.98-2.78-.17-3.73,1.28-1.54,2.36-3.28,4.59-4.75,6.99-4.31,7.01-3.91,5.21-8.43,.91-.77-.74-1.42-1.65-2.5-1.89Z"/><path class="e" d="M40.1,45.74c1.08,.24,1.73,1.15,2.5,1.89,4.52,4.31,4.12,6.11,8.43-.91,1.47-2.4,3.21-4.63,4.75-6.99,.95-1.45,2.1-2.26,3.73-1.28,1.76,1.06,.95,2.21,.06,3.51-3.09,4.52-6.05,9.13-9.1,13.68-1.93,2.89-2.96,2.98-5.45,.52-2.14-2.1-4.24-4.24-6.36-6.36-.78-.78-1.08-1.7-.58-2.72,.38-.78,1-1.32,2.01-1.35Z"/></g></g></g></svg>