<?xml version="1.0" encoding="UTF-8"?><svg xmlns="http://www.w3.org/2000/svg" viewBox="0 0 72 88.38"><defs><style>.d{fill:#18e3cd;}.e{fill:#f9fcfe;}</style></defs><g id="a"/><g id="b"><g id="c"><g><path class="d" d="M.03,52.2c-.2-8.16,2.15-15.3,6.98-21.57,1.37-1.77,2.24-3.24,.32-5.15-1.02-1.01-1.43-2.34-.26-3.54,1.4-1.44,2.77-.66,3.92,.41,1.49,1.38,2.97,1.31,4.49,.2,3.69-2.7,7.93-4.12,12.25-5.39,1.26-.37,2.37-.72,3.18-2.08,2.62-4.41,7.22-4.43,10.1,0,.97,1.49,2.29,1.78,3.68,2.21,3.66,1.12,7.32,2.25,10.41,4.62,2.02,1.56,3.98,2.42,6.14,.2,.73-.75,1.77-1.06,2.7-.33,1.05,.82,1.38,2.2,.66,3.13-2.37,3.05-.38,5.18,1.16,7.56,7.48,11.57,8.28,23.72,2.17,35.98-6.34,12.72-17.45,19.62-31.2,19.92C14.68,88.85-.8,70.66,.03,52.2Zm57.22,18.84c1.95-.6,2.64-2.19,3.09-3.97,5.55-6.45,5.68-14.11,3.86-21.65-3.56-14.72-16.97-23.94-31.66-22.46-14.18,1.43-25.28,13.35-26.3,28.26-.62,9.03,5.61,20.9,12.51,23.84,8.75,10.5,31.57,7.46,37.53-3.02l.97-1Z"/><path class="d" d="M35.72,9.88c-1.82,0-3.65-.05-5.47,.01-3.11,.12-5.14-.8-5.12-4.41,.01-3.38,1.28-5.44,4.88-5.47,3.98-.03,7.96,0,11.94,0,3.74,0,4.07,2.48,4.13,5.41,.06,3.14-1.17,4.64-4.39,4.48-1.98-.1-3.98-.02-5.97-.02Z"/><path class="e" d="M56.68,70.49l-.92,1.02c-11.44,9.74-23.54,11.21-36.43,2.93-14.76-12.37-12.64-29.83-5.21-39.08,4.47-5.57,10.26-8.78,17.09-10.33,3.48-.79,5.14,.21,4.93,4.25-.32,6.12,.09,12.28-.15,18.41-.13,3.37,1.13,4.25,4.3,4.15,6.46-.2,12.94,.05,19.41-.1,2.97-.07,3.77,1.16,3.41,3.89-.5,3.85-2.24,7.27-3.43,10.88-1,1.33-2,2.65-3,3.98Z"/></g></g></g></svg>