<?xml version="1.0" encoding="UTF-8"?><svg xmlns="http://www.w3.org/2000/svg" viewBox="0 0 89.01 85.02"><defs><style>.d{fill:#16e4cd;}.e{fill:#edfbfb;}</style></defs><g id="a"/><g id="b"><g id="c"><g><path class="d" d="M7.76,62.78c4.67-6.81,.23-11.59-5.75-16.27-2.96-2.31-2.43-5.65,.15-8.34,1.38-1.43,2.81-2.9,4.47-3.96,2.87-1.83,3.4-3.98,2.43-7.21-3.1-10.36-.81-13.55,9.94-13.78,3.38-.07,5.25-1.22,6.09-4.5,.74-2.9,1.63-5.92,4.39-7.6,4.06-2.48,7.48-.31,10.41,2.21,3.2,2.75,5.71,2.86,9.15,.17,7.43-5.81,11.8-4.43,14.72,4.58,1.24,3.82,3.18,5.12,7.16,5.19,9.84,.15,12.34,3.64,9.46,12.83-1.17,3.74-.46,6.24,2.72,8.6,7.81,5.78,7.87,9.85,.18,15.46-3.38,2.47-4.09,5.08-2.82,9,2.8,8.67,.3,12.48-8.81,12.5-5.05,.01-6.89,2.07-8.3,6.47-2.36,7.38-7.18,8.93-13.32,4.08-3.99-3.15-6.74-3.32-10.81-.13-6.47,5.07-11.21,3.55-13.5-4.21-1.38-4.69-3.72-6.18-8.5-6.22-6.87-.05-9.49-2.62-9.47-8.87Zm32.56-9.01c.6-.19,.97-.22,1.22-.41,5.86-4.36,11.74-8.69,17.51-13.16,1.15-.89,1.07-2.44,.1-3.6-1.11-1.33-2.55-1.55-3.99-.54-2.04,1.43-4.02,2.94-6.03,4.43-2.4,1.78-4.57,4.33-7.26,5.16-3.62,1.11-4.75-3.26-7.18-4.94-1.56-1.08-3.06-1.56-4.45-.1-1.38,1.45-1.02,3.06,.32,4.43,2.45,2.49,4.89,4.98,7.43,7.39,.68,.65,1.66,.98,2.33,1.35Z"/><path class="e" d="M40.32,53.76c-.67-.38-1.65-.71-2.33-1.35-2.53-2.4-4.98-4.9-7.43-7.39-1.34-1.36-1.7-2.97-.32-4.43,1.39-1.47,2.88-.98,4.45,.1,2.44,1.68,3.56,6.05,7.18,4.94,2.69-.83,4.86-3.38,7.26-5.16,2-1.48,3.98-3,6.03-4.43,1.44-1.01,2.88-.79,3.99,.54,.97,1.17,1.06,2.71-.1,3.6-5.77,4.47-11.66,8.8-17.51,13.16-.25,.19-.62,.21-1.22,.41Z"/></g></g></g></svg>