<svg xmlns="http://www.w3.org/2000/svg" viewBox="0 0 89.34 128"><defs><style>.cls-1{fill:#fff;}</style></defs><g id="Layer_2" data-name="Layer 2"><g id="Google_Maps" data-name="Google Maps"><path class="cls-1" d="M10.45,16.13a5.81,5.81,0,0,1,1.28-1.67,44.93,44.93,0,0,1,9.14-7.64A44.47,44.47,0,0,1,31.74,1.88a45.38,45.38,0,0,1,24.08-.49A46.11,46.11,0,0,1,66.25,5.56,44.63,44.63,0,0,1,77.4,14.3a46.2,46.2,0,0,1,6.45,8.94,40.2,40.2,0,0,1,3.07,6.83,45.71,45.71,0,0,1,2.39,17,44.14,44.14,0,0,1-.73,7.07,50.3,50.3,0,0,1-2,7.49,54.4,54.4,0,0,1-3.34,7.67,74.35,74.35,0,0,1-5,8c-1.92,2.71-4,5.32-6,7.92-2.26,2.89-4.59,5.71-6.82,8.61-1.74,2.24-3.42,4.53-5,6.85-1.36,1.94-2.69,3.9-3.95,5.9a48.58,48.58,0,0,0-3.25,6A66.79,66.79,0,0,0,50.68,119c-.49,1.46-.93,2.94-1.43,4.4a13.61,13.61,0,0,1-1.47,3.17,4.06,4.06,0,0,1-6.7-.69,46.64,46.64,0,0,1-2-5.44c-.75-2.2-1.51-4.39-2.44-6.53a54.54,54.54,0,0,0-3-5.92c-1-1.77-2.18-3.48-3.34-5.18s-2.54-3.62-3.82-5.42c-.49-.68-1-1.34-1.53-2-.14-.19-.32-.36-.23-.63s.48-.46.7-.72l5.9-7.06c2.06-2.46,4.13-4.9,6.19-7.35s4.27-5.06,6.39-7.59l5.39-6.43c1-1.24,2.15-2.43,3.14-3.71s2.32-2.43,3-4a23.64,23.64,0,0,0,2.33-2.47A16,16,0,0,0,60.89,50a17.07,17.07,0,0,0,.61-8.06,16.39,16.39,0,0,0-3.42-7.82A16.76,16.76,0,0,0,47,27.72a17.16,17.16,0,0,0-10.09,1.7,16.09,16.09,0,0,0-4.45,3.41,2,2,0,0,1-.92.71c-.26.08-.39-.13-.55-.26-1.58-1.34-3.19-2.64-4.75-4S23,26.56,21.36,25.21l-4.18-3.49c-1.4-1.18-2.78-2.38-4.2-3.54A31,31,0,0,0,10.45,16.13Z"/><path class="cls-1" d="M55.49,57.87c-.7,1.56-2,2.68-3,4s-2.1,2.47-3.14,3.71L43.94,72c-2.12,2.53-4.26,5.06-6.39,7.59s-4.13,4.89-6.19,7.35L25.46,94c-.22.26-.47.48-.7.72-.49,0-.67-.48-.89-.78-2.57-3.4-5.29-6.68-7.92-10-1.3-1.65-2.62-3.3-3.84-5C10.76,77,9.39,75.05,8.15,73a59.75,59.75,0,0,1-3-5.41A54.38,54.38,0,0,1,2.85,62.1,47.12,47.12,0,0,1,1,55.43a53.21,53.21,0,0,1-.95-7.86A59.87,59.87,0,0,1,.2,40.23a42.44,42.44,0,0,1,1.17-6.71,41.81,41.81,0,0,1,1.56-4.91,42.72,42.72,0,0,1,3.31-6.8A46,46,0,0,1,10,16.47c.13-.15.2-.4.48-.34A31,31,0,0,1,13,18.18c1.42,1.16,2.8,2.36,4.2,3.54l4.18,3.49c1.62,1.35,3.26,2.67,4.84,4.06s3.17,2.67,4.75,4c.16.13.29.34.55.26a1.52,1.52,0,0,1-.36.73,17,17,0,0,0,.55,21.36,16.53,16.53,0,0,0,3.58,3.2,17.45,17.45,0,0,0,3.95,1.87,17.22,17.22,0,0,0,5.16.94,16.63,16.63,0,0,0,3.9-.41,19,19,0,0,0,4.22-1.52C53.57,59.21,54.46,58.43,55.49,57.87Z"/></g></g></svg>