<svg xmlns="http://www.w3.org/2000/svg" viewBox="0 0 127.94 128"><defs><style>.cls-1{fill:gray;}</style></defs><g id="Layer_2" data-name="Layer 2"><g id="Instagram"><path class="cls-1" d="M127.91,64c0,9.3.07,18.6,0,27.89-.14,13.67-6,24.19-17.75,31.28a34.1,34.1,0,0,1-18,4.75c-18.82,0-37.63.18-56.45-.05C20.56,127.69,9.58,120.46,3,106.75A33.13,33.13,0,0,1,0,92.31C0,73.41,0,54.5,0,35.6A35.25,35.25,0,0,1,24.52,1.74,34.77,34.77,0,0,1,35.66.06C54.52.06,73.39-.1,92.24.11c15.23.16,26.16,7.45,32.69,21.17a33.81,33.81,0,0,1,3,14.7Q127.9,50,127.91,64Zm-64,52.57H91.56a26.28,26.28,0,0,0,6.13-.58c11.55-2.79,18.84-12.06,18.85-24.06q0-28,0-55.92a25.25,25.25,0,0,0-.59-5.88c-2.72-11.38-12.1-18.73-24-18.74q-28,0-55.92,0a25.32,25.32,0,0,0-6.26.65A23.88,23.88,0,0,0,11.39,35.68q-.09,28.29,0,56.58a23.54,23.54,0,0,0,8.32,18.46,24.1,24.1,0,0,0,16.46,5.86Q50.05,116.57,63.92,116.58Z"/><path class="cls-1" d="M63.94,96.93a33,33,0,1,1,33-32.88A33,33,0,0,1,63.94,96.93ZM64,85.57A21.6,21.6,0,1,0,42.37,64,21.64,21.64,0,0,0,64,85.57Z"/><path class="cls-1" d="M98.26,38a8.3,8.3,0,1,1,8.33-8.24A8.33,8.33,0,0,1,98.26,38Z"/></g></g></svg>