<svg xmlns="http://www.w3.org/2000/svg" viewBox="0 0 127.19 128"><defs><style>.cls-1{fill:#069;}.cls-2{fill:#fff;fill-rule:evenodd;}</style></defs><g id="Layer_2" data-name="Layer 2"><g id="Linkedin"><g id="layer1"><g id="g3019"><path id="path14" class="cls-1" d="M0,9.17A9.29,9.29,0,0,1,9.4,0H117.79a9.29,9.29,0,0,1,9.4,9.17V118.83a9.28,9.28,0,0,1-9.4,9.17H9.4A9.28,9.28,0,0,1,0,118.83Z"/><path id="path28" class="cls-2" d="M38.56,107.15V49.35H19.34v57.8ZM29,41.46c6.7,0,10.87-4.44,10.87-10s-4.17-10-10.74-10-10.87,4.31-10.87,10,4.17,10,10.62,10Z"/><path id="path30" class="cls-2" d="M49.19,107.15H68.4V74.87A13.13,13.13,0,0,1,69,70.18c1.39-3.45,4.55-7,9.86-7,7,0,9.73,5.3,9.73,13.07v30.92h19.21V74c0-17.76-9.48-26-22.12-26-10.36,0-14.91,5.8-17.44,9.74h.13V49.35H49.19c.25,5.42,0,57.8,0,57.8Z"/></g></g></g></g></svg>