<svg xmlns="http://www.w3.org/2000/svg" viewBox="0 0 133.52 128"><defs><style>.cls-1{fill:gray;}</style></defs><g id="Layer_2" data-name="Layer 2"><g id="Lnkedin"><path class="cls-1" d="M74.72,51.64c9.12-10.92,20.35-14.06,33.47-11.41,14,2.81,23.37,13.83,24.59,29.69,1.4,18.18.31,36.43.61,54.65.05,2.82-1.48,2.86-3.54,2.85-7.16-.06-14.33-.17-21.49,0-3,.09-3.65-.86-3.62-3.68.14-13.4.06-26.8.06-40.19a45.15,45.15,0,0,0-.69-8.83c-1.74-8.84-6.94-13.34-15-12.79A15.37,15.37,0,0,0,74.87,77.15c-.25,12,0,24-.2,36-.06,4.62,2,10.69-.9,13.46s-8.91.63-13.55.78c-3.42.11-6.86-.13-10.27.07-2.86.17-4.07-.45-4.05-3.74q.21-39.48,0-79c0-2.62.69-3.52,3.38-3.45,7,.17,14,.25,21,0,3.47-.13,4.87.82,4.41,4.39A48,48,0,0,0,74.72,51.64Z"/><path class="cls-1" d="M30.12,84.86c0,12.91-.1,25.83.07,38.74,0,3.1-.91,3.94-3.92,3.86-7.15-.21-14.31-.16-21.47,0-2.43,0-3.21-.75-3.21-3.18q.1-39.9,0-79.82c0-2.46.84-3.19,3.24-3.14,7.15.12,14.32.19,21.47,0,3.09-.1,3.91.89,3.88,3.91C30,58.41,30.12,71.63,30.12,84.86Z"/><path class="cls-1" d="M16,29.51C6.64,29.57.08,23.61,0,15-.08,6.11,6.39,0,16,0S32,6.05,32,15C31.91,23.51,25.38,29.45,16,29.51Z"/></g></g></svg>