<svg xmlns="http://www.w3.org/2000/svg" viewBox="0 0 113.27 128"><defs><style>.cls-1{fill:#ff004f;}.cls-2{fill:#00f2ea;}</style></defs><g id="Layer_2" data-name="Layer 2"><g id="tiktok"><path class="cls-1" d="M84,46.21a50.29,50.29,0,0,0,29.32,9.37v-21a29.52,29.52,0,0,1-6.15-.64V50.46a50.25,50.25,0,0,1-29.33-9.38V84a38.9,38.9,0,0,1-60.55,32.3A38.9,38.9,0,0,0,84,89.12V46.21ZM91.55,25A29.31,29.31,0,0,1,84,7.83V5.12H78.11A29.46,29.46,0,0,0,91.55,25ZM30.83,99.83A17.78,17.78,0,0,1,45,71.28a18,18,0,0,1,5.4.83V50.61a38.44,38.44,0,0,0-6.16-.35V67a17.79,17.79,0,0,0-13.4,32.84Z"/><path d="M77.79,41.08a50.25,50.25,0,0,0,29.33,9.38V33.91A29.43,29.43,0,0,1,91.55,25,29.46,29.46,0,0,1,78.11,5.12H62.78v84A17.79,17.79,0,0,1,30.83,99.83,17.79,17.79,0,0,1,44.23,67V50.26a38.87,38.87,0,0,0-27,66A38.9,38.9,0,0,0,77.79,84V41.08Z"/><path class="cls-2" d="M107.12,33.91V29.43A29.33,29.33,0,0,1,91.55,25,29.39,29.39,0,0,0,107.12,33.91Zm-29-28.79c-.14-.8-.24-1.61-.32-2.41V0H56.62V84A17.79,17.79,0,0,1,30.83,99.83a17.79,17.79,0,0,0,32-10.71v-84ZM44.23,50.26V45.49a39.55,39.55,0,0,0-5.33-.36A38.87,38.87,0,0,0,17.24,116.3a38.87,38.87,0,0,1,27-66Z"/></g></g></svg>