<svg xmlns="http://www.w3.org/2000/svg" viewBox="0 0 155.57 128"><defs><style>.cls-1{fill:gray;}</style></defs><g id="Layer_2" data-name="Layer 2"><g id="Twitter"><path class="cls-1" d="M0,114.19c16.92.67,32.13-3.43,46.1-13.9-14.66-1.58-24.47-8.83-29.85-22.48,4.74.39,9.1.62,13.83-.61-15.65-5-24.13-15.41-25.25-32C9.41,47,13.59,48.93,18.7,48.72,4.78,36.74,1.84,22.66,9.39,5.84c2.11,2.28,3.84,4.25,5.68,6.11,16.11,16.29,35.52,25.55,58.4,27.5,2.24.19,2.62-.22,2.27-2.55A32.39,32.39,0,0,1,92.57,3.74a32.06,32.06,0,0,1,36.8,4.78,4.18,4.18,0,0,0,4.36,1.15,75.82,75.82,0,0,0,17.84-7.12,32.23,32.23,0,0,1-13.5,17.3c6.15-.2,11.34-2.4,17.5-4.21a53.89,53.89,0,0,1-12.76,13.9A6.36,6.36,0,0,0,140,35.36c.19,38.23-24.34,77.78-65.67,89-25.58,6.94-50.07,4-73.11-9.41C.78,114.71.4,114.44,0,114.19Z"/></g></g></svg>