<svg xmlns="http://www.w3.org/2000/svg" viewBox="0 0 182.85 128"><defs><style>.cls-1{fill:red;}.cls-2{fill:#fff;}</style></defs><g id="Layer_2" data-name="Layer 2"><g id="youtube"><path class="cls-1" d="M179,20A22.93,22.93,0,0,0,162.86,3.82C148.61,0,91.42,0,91.42,0S34.24,0,20,3.82A22.93,22.93,0,0,0,3.82,20C0,34.24,0,64,0,64s0,29.76,3.82,44A22.93,22.93,0,0,0,20,124.18C34.24,128,91.42,128,91.42,128s57.19,0,71.44-3.82A22.93,22.93,0,0,0,179,108c3.82-14.25,3.82-44,3.82-44S182.83,34.24,179,20Z"/><path class="cls-2" d="M73.12,91.43,120.63,64,73.12,36.58Z"/></g></g></svg>