<svg xmlns="http://www.w3.org/2000/svg" viewBox="0 0 125.93 128"><defs><style>.cls-1{fill:#fdfefe;}.cls-2{fill:#0d292a;}.cls-3{fill:#297778;}.cls-4{fill:#0d2829;}.cls-5{fill:#0c2728;}</style></defs><g id="Layer_2" data-name="Layer 2"><g id="Charger"><path class="cls-1" d="M80.94,32.7c-.09,8.59.44,17.23-.4,25.75C79.19,72.16,68.89,87.06,48.72,90.31l-9.44-.2C19.58,85.94,8.15,71.87,8.08,51.7q0-9.47-.07-18.92c1.51-.12,3-.34,4.52-.34q31.76,0,63.5,0C77.66,32.44,79.3,32.61,80.94,32.7Z"/><path class="cls-2" d="M39.28,90.11l9.44.2c5.87,26.12,36.9,37.47,56.8,20.71,6.81-5.73,10.38-13.26,11.24-22.09.09-.89.06-1.78.2-2.66.47-2.87,2.06-4.77,5.09-4.49s3.81,2.31,3.87,5.12c.43,21-17.77,40.32-38.89,41.06C62.67,128.82,44.5,114.41,39.28,90.11Z"/><path class="cls-3" d="M80.94,32.7c-1.64-.09-3.28-.26-4.91-.26q-31.76,0-63.5,0c-1.5,0-3,.22-4.52.34a14.72,14.72,0,0,0-1.88-.13c-2.23.08-4.63,0-5.45-2.41A10.72,10.72,0,0,1,.9,22.16c.74-1.56,2.4-1.6,4-1.59,5,0,10.07,0,15.11,0H69.11c4.68,0,9.36,0,14,0s5.89,1.24,6,5.75c.08,4.75-1.24,6.16-5.91,6.3Z"/><path class="cls-4" d="M29.14,20.58H20L20,5.36C20,2.3,21.18,0,24.54,0s4.52,2.35,4.56,5.35C29.16,10.43,29.13,15.51,29.14,20.58Z"/><path class="cls-5" d="M69.11,20.57H60c0-5.06.06-10.12.06-15.18C60.08,2.32,61.22,0,64.55,0S69,2.34,69,5.39Q69.07,13,69.11,20.57Z"/></g></g></svg>