<svg xmlns="http://www.w3.org/2000/svg" viewBox="0 0 94.26 128"><defs><style>.cls-1{fill:#f9fcfc;}</style></defs><g id="Layer_2" data-name="Layer 2"><g id="Layer_2-2" data-name="Layer 2"><path class="cls-1" d="M47.61,98.53c-3,7.89-5.79,15-8.53,22.14-.39,1-.76,2-1.16,3-2,5-5,5.58-8.85,1.76-1.48-1.45-3-2.87-4.37-4.39a4.48,4.48,0,0,0-4.16-1.59,54.62,54.62,0,0,1-7.35.27c-4.16-.1-5.87-2.6-4.4-6.47,3.25-8.54,6.58-17,9.88-25.55,1.07-2.77-.89-8.39-3.47-9.92a18.67,18.67,0,0,0-1.83-1C7.11,74,4,69.3,4.79,62.32a8.79,8.79,0,0,0-1.74-6.58c-4.12-5.57-4-11.31.05-16.88a8,8,0,0,0,1.68-6c-.84-7,1.94-12.06,8.44-14.89a8.37,8.37,0,0,0,4.57-4.61C20.56,7.05,25.36,4,32.33,4.81a8.31,8.31,0,0,0,6.3-1.68C44.18-1,49.91-1,55.49,3.09a7.94,7.94,0,0,0,6,1.73c7.65-1,12.59,2.56,15.41,9.46a5.52,5.52,0,0,0,3.25,3.17c7.26,3,10.21,8.51,9.15,16.21A6,6,0,0,0,90.58,38c5,7.58,4.93,11-.25,18.54a6,6,0,0,0-1.27,4.36c.12,1,0,2,0,2.94.39,5.55-2.09,9.41-6.89,12-1.63.87-3.63,1.55-4.67,2.91-1.76,2.3-2.72,4.76-1.26,8.1C80,95.3,83.08,104,86.39,112.61c1.83,4.76.08,7.71-4.93,7-6.71-.9-11.55,1-15.79,6.26-2.85,3.5-6.43,2.45-8.12-1.85-2.87-7.31-5.65-14.66-8.47-22C48.73,101.17,48.34,100.29,47.61,98.53Zm33.84,15.63c-.41-1.14-.72-2.06-1.06-3Q75.31,98,70.22,84.83c-.31-.81-1.11-1.79-.58-2.5,2.42-3.23,2.6-7.88,7.26-9.78,6.78-2.78,7.45-4.31,6.91-11.78A9.4,9.4,0,0,1,85.73,54c4.21-5.68,4.32-7.33.46-12.87-1.86-2.68-2.74-5.26-2.18-8.44.91-5.1-1.19-8.6-6-10.34a9.19,9.19,0,0,1-6-5.89c-1.78-5-5.31-7.31-10.73-6.37A8.79,8.79,0,0,1,53.45,8c-4.24-3.72-8.74-3.58-13,.06a8.37,8.37,0,0,1-7.3,2c-5.61-1-9.36,1.29-11.19,6.58A8.22,8.22,0,0,1,16.57,22C11.69,23.8,9,27.17,10,32.65a10.49,10.49,0,0,1-2.49,8.92C5,44.7,4,48.35,6.91,51.78s3.65,7.58,3.12,12c0,.39,0,.79,0,1.18-.06,2.37.76,4.47,3,5.33,5.53,2.16,8.86,6.23,11.35,11.43.79,1.65,1.19,2.84.51,4.57-3.36,8.49-6.59,17-9.91,25.53-.7,1.77-1.06,3.16,1.66,2.55,5.94-1.32,10.76.28,14.28,5.37.06.08.15.13.21.2,1.5,1.94,2.28,1.37,3-.67,3.34-8.92,6.77-17.8,10.19-26.69.63-1.64,1.15-3.51,3.39-3.57s2.83,1.77,3.47,3.44c3.24,8.43,6.46,16.87,9.72,25.29a9.24,9.24,0,0,0,2.5,4.33c2.35-2.65,4.22-6.32,7.15-7.64S77.46,114.15,81.45,114.16Z"/><path class="cls-1" d="M13.55,46.63a33.57,33.57,0,0,1,67.14.11C80.76,65.06,65.44,80.33,47,80.33A33.67,33.67,0,0,1,13.55,46.63Zm5.23,0A28.33,28.33,0,1,0,47.19,18.4,28.32,28.32,0,0,0,18.78,46.66Z"/><path class="cls-1" d="M33.56,44.61A3.58,3.58,0,0,1,36.19,46c2,2,4.11,3.95,6,6.06,1.41,1.57,2.18,1.28,3.24-.36C49.21,45.82,53.1,40.05,57,34.25a14.93,14.93,0,0,1,1.56-2.13A2.63,2.63,0,0,1,62,31.69a2.58,2.58,0,0,1,1,3.38,10.86,10.86,0,0,1-1.18,2Q54.67,47.9,47.55,58.7c-1.9,2.87-3.37,3-5.87.56q-4.83-4.74-9.61-9.53c-.93-.93-1.57-2-.95-3.44A2.74,2.74,0,0,1,33.56,44.61Z"/></g></g></svg>