<svg xmlns="http://www.w3.org/2000/svg" viewBox="0 0 69.18 128"><defs><style>.cls-1{fill:gray;}</style></defs><g id="Layer_2" data-name="Layer 2"><g id="Facebook"><path class="cls-1" d="M46.36,99v25c0,3.15-.87,4-4,4H23.42c-3.44,0-4.13-.69-4.13-4.08,0-16.57,0-33.15,0-49.72,0-1.52-.3-2-1.92-2-4.66.12-9.33,0-14,0C.83,72.21,0,71.44,0,68.82q0-9.64,0-19.28c0-2.71.82-3.46,3.55-3.46,4.73,0,9.46,0,14.18,0,1.21,0,1.57-.28,1.57-1.54,0-5.67-.33-11.35.2-17,.86-9.12,4.41-16.88,12.14-22.27C37.23,1.41,43.59.1,50.25,0c5.1-.06,10.21,0,15.32,0,2.76,0,3.6.88,3.6,3.63q0,8.79,0,17.58c0,2.71-.91,3.59-3.63,3.61-3.85,0-7.69,0-11.54.05-5.25.11-7.48,2.31-7.58,7.5-.08,4.1,0,8.2-.1,12.29,0,1.28.47,1.39,1.53,1.39,5.67-.05,11.34,0,17,0,2.7,0,3.53.82,3.53,3.47q0,9.64,0,19.29c0,2.58-.81,3.38-3.39,3.39-5.67,0-11.34,0-17,0-1.34,0-1.67.37-1.66,1.68C46.39,82.26,46.36,90.64,46.36,99Z"/></g></g></svg>