<svg xmlns="http://www.w3.org/2000/svg" viewBox="0 0 182.84 128"><defs><style>.cls-1{fill:gray;}</style></defs><g id="Layer_2" data-name="Layer 2"><g id="Youtube"><path class="cls-1" d="M90.59,128c-19.86-.53-41.16-.29-62.35-2.67-16.59-1.87-23.6-8.2-25.76-24.66A268.34,268.34,0,0,1,3,24.26C4.93,11.78,11.84,5,24.4,2.94,36.05,1.05,47.84.79,59.59.49,89.2-.28,118.8-.35,148.37,1.83a111.74,111.74,0,0,1,12.37,1.54c10.55,2,17.25,9.21,19.21,20.68,3,17.67,3.28,35.49,2.53,53.33A201,201,0,0,1,180,103.63c-2.3,13.09-9.87,20.22-23.19,21.58-4.72.48-9.45,1-14.19,1.31C125.76,127.48,108.88,127.75,90.59,128ZM73.33,91.29l47.51-27.37L73.33,36.58Z"/></g></g></svg>